<svg width="745px" height="962px" viewBox="0 0 745 962" version="1.1" xmlns="http://www.w3.org/2000/svg" xmlns:xlink="http://www.w3.org/1999/xlink">
    <!-- Generator: Sketch 50.2 (55047) - http://www.bohemiancoding.com/sketch -->
    <desc>Created with Sketch.</desc>
    <defs>
        <radialGradient cx="50%" cy="0%" fx="50%" fy="0%" r="100%" gradientTransform="translate(0.500000,0.000000),scale(0.632416,1.000000),rotate(90.000000),translate(-0.500000,-0.000000)" id="radialGradient-1">
            <stop stop-color="#E1261C" offset="0%"></stop>
            <stop stop-color="#5492EA" offset="100%"></stop>
        </radialGradient>
    </defs>
    <g id="CRM" stroke="none" stroke-width="1" fill="none" fill-rule="evenodd">
        <g id="17.0-bloom-login" transform="translate(-695.000000, 0.000000)" fill="url(#radialGradient-1)" stroke="#A8A8A8">
            <g id="Group" transform="translate(696.000000, -73.000000)">
                <g id="icons/bloom-login">
                    <path d="M1087.92753,907 C1039.62994,907 993.583397,900.967013 951.01332,888.980945 C1051.21817,789.456632 1094.361,651.483677 1094.361,517.013318 C1094.361,382.529641 1051.21817,244.543368 951,145.019055 C993.570077,133.019669 1039.61662,127 1087.92753,127 C1312.57926,127 1489,256.542754 1489,517.013318 C1489,777.457246 1312.57926,907 1087.92753,907 M948,517.013322 C948,655.738097 898.050138,757.32039 817.5,822 C736.936564,757.32039 687,655.738097 687,517.013322 C687,378.275225 736.936564,276.67961 817.5,212 C898.050138,276.67961 948,378.275225 948,517.013322 M547.085786,907 C322.420737,907 146,777.457246 146,517.013318 C146,256.542754 322.420737,127 547.085786,127 C595.383377,127 641.443242,133.019669 684,145.019055 C583.781833,244.543368 540.639004,382.529641 540.639004,517.013318 C540.639004,651.483677 583.781833,789.456632 684,888.980945 C641.429923,900.967013 595.383377,907 547.085786,907 M1087.8601,0 C980.270125,0 890.860433,19.7050084 817.5,53.3061114 C744.152886,19.7050084 654.743194,0 547.15322,0 C151.608897,0 0,264.705279 0,517.006662 C0,769.294721 151.608897,1034 547.15322,1034 C654.743194,1034 744.152886,1014.29499 817.5,980.693889 C890.860433,1014.29499 980.270125,1034 1087.8601,1034 C1483.40442,1034 1635,769.294721 1635,517.006662 C1635,264.705279 1483.40442,0 1087.8601,0" id="Fill-31"></path>
                </g>
            </g>
        </g>
    </g>
</svg>
